<svg width="170" height="100" viewBox="0 0 170 100" fill="none" xmlns="http://www.w3.org/2000/svg">
<path fill-rule="evenodd" clip-rule="evenodd" d="M170 26.9378V35.5782L164.281 37.6112V59.4664L170 62.516V70.6481L143.486 53.3673C131.876 64.0407 103.976 82.8463 86.2997 82.8463C64.4872 82.8463 50.2993 72.2659 28.379 55.9191C27.2582 55.0834 26.1173 54.2326 24.9541 53.3673L0 70.6481V62.516L4.6789 59.4664V37.6112L0 35.5782V26.9378L24.9541 43.2021C55.107 20.8387 70.1835 14.2312 85.7798 14.2313C101.447 14.2313 114.048 22.9152 139.248 40.2829C140.622 41.2301 142.034 42.2032 143.486 43.2021L170 26.9378ZM141.407 48.8838C131.009 39.136 100.856 18.2974 85.7799 18.2974C69.8193 18.2974 59.6264 25.5999 39.1633 40.2603C35.4833 42.8968 31.4712 45.7712 27.0337 48.8838C39.3375 59.8961 66.0245 78.7802 85.7799 78.7802C100.336 78.7802 121.132 64.549 141.407 48.8838Z" fill="#2285C2"/>
<path d="M159.083 55.9084V41.6772L147.645 49.0564L159.083 55.9084Z" fill="white"/>
<path d="M9.35761 41.6772V55.9085L20.7949 48.5293L9.35761 41.6772Z" fill="white"/>
<mask id="mask0_2191_1487" style="mask-type:alpha" maskUnits="userSpaceOnUse" x="25" y="14" width="116" height="63">
<path d="M84.206 15.2477C99.1454 15.2478 129.024 36.0864 139.327 45.8342C119.236 61.4993 98.6303 75.7306 84.206 75.7306C64.6303 75.7306 38.1858 56.8465 25.9939 45.8342C54.8424 25.4129 65.5464 15.2477 84.206 15.2477Z" fill="#D9D9D9" stroke="black"/>
</mask>
<g mask="url(#mask0_2191_1487)">
<rect x="42.4788" y="48.7929" width="7.21212" height="21.3469" fill="#51ADE5" fill-opacity="0.57"/>
<rect x="106.348" y="41.6772" width="7.21212" height="27.446" fill="black" fill-opacity="0.67"/>
<rect x="119.751" y="47.7764" width="7.21212" height="27.446" fill="black" fill-opacity="0.67"/>
<rect x="54.8423" y="41.6772" width="7.21212" height="30.4956" fill="#51ADE5" fill-opacity="0.57"/>
<rect x="67.2061" y="37.6112" width="7.21212" height="40.6607" fill="#51ADE5" fill-opacity="0.57"/>
<mask id="path-10-inside-1_2191_1487" fill="white">
<path fill-rule="evenodd" clip-rule="evenodd" d="M80.1414 37.6112C79.8256 37.6112 79.5696 37.8672 79.5696 38.183V38.3017C79.5696 40.3053 80.622 42.0631 82.2041 43.0525V71.2416C82.2041 72.8787 83.5313 74.2059 85.1684 74.2059C86.8055 74.2059 88.1327 72.8787 88.1327 71.2416V43.053C89.7153 42.0637 90.768 40.3056 90.768 38.3017V38.183C90.768 37.8672 90.512 37.6112 90.1962 37.6112H80.1414Z"/>
</mask>
<path fill-rule="evenodd" clip-rule="evenodd" d="M80.1414 37.6112C79.8256 37.6112 79.5696 37.8672 79.5696 38.183V38.3017C79.5696 40.3053 80.622 42.0631 82.2041 43.0525V71.2416C82.2041 72.8787 83.5313 74.2059 85.1684 74.2059C86.8055 74.2059 88.1327 72.8787 88.1327 71.2416V43.053C89.7153 42.0637 90.768 40.3056 90.768 38.3017V38.183C90.768 37.8672 90.512 37.6112 90.1962 37.6112H80.1414Z" fill="white"/>
<path d="M82.2041 43.0525H83.2041V42.4984L82.7343 42.2046L82.2041 43.0525ZM88.1327 43.053L87.6026 42.2051L87.1327 42.4988V43.053H88.1327ZM80.5696 38.183C80.5696 38.4195 80.3779 38.6112 80.1414 38.6112V36.6112C79.2733 36.6112 78.5696 37.3149 78.5696 38.183H80.5696ZM80.5696 38.3017V38.183H78.5696V38.3017H80.5696ZM82.7343 42.2046C81.4321 41.3903 80.5696 39.9463 80.5696 38.3017H78.5696C78.5696 40.6642 79.8118 42.7359 81.6739 43.9004L82.7343 42.2046ZM83.2041 71.2416V43.0525H81.2041V71.2416H83.2041ZM85.1684 73.2059C84.0835 73.2059 83.2041 72.3264 83.2041 71.2416H81.2041C81.2041 73.431 82.979 75.2059 85.1684 75.2059V73.2059ZM87.1327 71.2416C87.1327 72.3264 86.2532 73.2059 85.1684 73.2059V75.2059C87.3578 75.2059 89.1327 73.431 89.1327 71.2416H87.1327ZM87.1327 43.053V71.2416H89.1327V43.053H87.1327ZM89.768 38.3017C89.768 39.9466 88.9052 41.3908 87.6026 42.2051L88.6628 43.901C90.5254 42.7366 91.768 40.6646 91.768 38.3017H89.768ZM89.768 38.183V38.3017H91.768V38.183H89.768ZM90.1962 38.6112C89.9597 38.6112 89.768 38.4195 89.768 38.183H91.768C91.768 37.3149 91.0643 36.6112 90.1962 36.6112V38.6112ZM80.1414 38.6112H90.1962V36.6112H80.1414V38.6112Z" fill="black" mask="url(#path-10-inside-1_2191_1487)"/>
<path d="M83.3022 52.7637V52.7637C85.2426 52.7637 86.8155 54.3366 86.8155 56.2769V71.0198C86.8155 71.9899 86.029 72.7764 85.0589 72.7764V72.7764C84.0887 72.7764 83.3022 71.9899 83.3022 71.0198V52.7637Z" fill="#F8A402"/>
<ellipse cx="85.8274" cy="51.7631" rx="0.768521" ry="1.00064" fill="#F8A402"/>
<ellipse cx="84.0708" cy="48.0464" rx="0.768521" ry="1.00064" fill="#F8A402"/>
<ellipse cx="85.608" cy="43.758" rx="0.988098" ry="1.28653" fill="#F8A402"/>
<path d="M84.4708 32.0203C84.4708 32.7212 83.894 33.2951 83.1753 33.2951C82.4567 33.2951 81.8799 32.7212 81.8799 32.0203C81.8799 31.3194 82.4567 30.7455 83.1753 30.7455C83.894 30.7455 84.4708 31.3194 84.4708 32.0203Z" fill="#F8A402" stroke="black" stroke-width="0.5"/>
<path d="M86.5316 35.5782C86.5316 35.9983 86.1854 36.3447 85.7513 36.3447C85.3171 36.3447 84.9709 35.9983 84.9709 35.5782C84.9709 35.158 85.3171 34.8116 85.7513 34.8116C86.1854 34.8116 86.5316 35.158 86.5316 35.5782Z" fill="#F8A402" stroke="black" stroke-width="0.5"/>
<mask id="path-18-inside-2_2191_1487" fill="white">
<path fill-rule="evenodd" clip-rule="evenodd" d="M91.4746 33.5452C91.1588 33.5452 90.9028 33.8012 90.9028 34.117V34.2356C90.9028 36.2395 91.9554 37.9974 93.5378 38.9868V67.1754C93.5378 68.8126 94.865 70.1397 96.5021 70.1397C98.1393 70.1397 99.4664 68.8126 99.4664 67.1754V38.9867C101.049 37.9973 102.101 36.2394 102.101 34.2356V34.117C102.101 33.8012 101.845 33.5452 101.529 33.5452H91.4746Z"/>
</mask>
<path fill-rule="evenodd" clip-rule="evenodd" d="M91.4746 33.5452C91.1588 33.5452 90.9028 33.8012 90.9028 34.117V34.2356C90.9028 36.2395 91.9554 37.9974 93.5378 38.9868V67.1754C93.5378 68.8126 94.865 70.1397 96.5021 70.1397C98.1393 70.1397 99.4664 68.8126 99.4664 67.1754V38.9867C101.049 37.9973 102.101 36.2394 102.101 34.2356V34.117C102.101 33.8012 101.845 33.5452 101.529 33.5452H91.4746Z" fill="white"/>
<path d="M93.5378 38.9868H94.5378V38.4326L94.068 38.1389L93.5378 38.9868ZM99.4664 38.9867L98.9363 38.1388L98.4664 38.4325V38.9867H99.4664ZM91.9028 34.117C91.9028 34.3535 91.7111 34.5452 91.4746 34.5452V32.5452C90.6065 32.5452 89.9028 33.2489 89.9028 34.117H91.9028ZM91.9028 34.2356V34.117H89.9028V34.2356H91.9028ZM94.068 38.1389C92.7656 37.3246 91.9028 35.8805 91.9028 34.2356H89.9028C89.9028 36.5984 91.1453 38.6703 93.0077 39.8347L94.068 38.1389ZM94.5378 67.1754V38.9868H92.5378V67.1754H94.5378ZM96.5021 69.1397C95.4173 69.1397 94.5378 68.2603 94.5378 67.1754H92.5378C92.5378 69.3649 94.3127 71.1397 96.5021 71.1397V69.1397ZM98.4664 67.1754C98.4664 68.2603 97.587 69.1397 96.5021 69.1397V71.1397C98.6916 71.1397 100.466 69.3649 100.466 67.1754H98.4664ZM98.4664 38.9867V67.1754H100.466V38.9867H98.4664ZM101.101 34.2356C101.101 35.8804 100.239 37.3245 98.9363 38.1388L99.9966 39.8346C101.859 38.6701 103.101 36.5984 103.101 34.2356H101.101ZM101.101 34.117V34.2356H103.101V34.117H101.101ZM101.529 34.5452C101.293 34.5452 101.101 34.3534 101.101 34.117H103.101C103.101 33.2489 102.398 32.5452 101.529 32.5452V34.5452ZM91.4746 34.5452H101.529V32.5452H91.4746V34.5452Z" fill="black" mask="url(#path-18-inside-2_2191_1487)"/>
<path d="M94.6357 48.6976V48.6976C96.576 48.6976 98.149 50.2706 98.149 52.2109V66.9537C98.149 67.9239 97.3625 68.7103 96.3924 68.7103V68.7103C95.4222 68.7103 94.6357 67.9239 94.6357 66.9537V48.6976Z" fill="#43F726"/>
<ellipse cx="97.1609" cy="47.697" rx="0.768521" ry="1.00064" fill="#43F726"/>
<ellipse cx="95.4043" cy="43.9803" rx="0.768521" ry="1.00064" fill="#43F726"/>
<ellipse cx="96.941" cy="39.6919" rx="0.988098" ry="1.28653" fill="#43F726"/>
<path d="M100.956 26.9377C100.956 27.6386 100.379 28.2125 99.6604 28.2125C98.9418 28.2125 98.365 27.6386 98.365 26.9377C98.365 26.2369 98.9418 25.663 99.6604 25.663C100.379 25.663 100.956 26.2369 100.956 26.9377Z" fill="#43F726" stroke="black" stroke-width="0.5"/>
<path d="M97.8653 31.5121C97.8653 31.9322 97.5191 32.2786 97.085 32.2786C96.6509 32.2786 96.3047 31.9322 96.3047 31.5121C96.3047 31.0919 96.6509 30.7455 97.085 30.7455C97.5191 30.7455 97.8653 31.0919 97.8653 31.5121Z" fill="#43F726" stroke="black" stroke-width="0.5"/>
</g>
<path d="M108.752 94.9174H102.936V93.5276L104.195 93.2894V84.9905L102.936 84.7522V83.3545H108.191C109.583 83.3545 110.669 83.6192 111.449 84.1486C112.229 84.6781 112.619 85.4696 112.619 86.5232C112.619 87.0579 112.472 87.537 112.18 87.9606C111.893 88.3788 111.473 88.6939 110.921 88.9056C111.403 89.0115 111.798 89.1889 112.107 89.4377C112.426 89.6918 112.662 90.0016 112.813 90.3669C112.971 90.7269 113.049 91.1213 113.049 91.5502C113.049 92.6567 112.675 93.4959 111.928 94.0676C111.181 94.6341 110.122 94.9174 108.752 94.9174ZM108.191 85.1413H106.567V88.1988H108.273C108.906 88.1988 109.394 88.0718 109.735 87.8176C110.076 87.5635 110.247 87.1929 110.247 86.7058C110.247 85.6628 109.562 85.1413 108.191 85.1413ZM108.931 89.803H106.567V93.1385H108.752C110.041 93.1385 110.685 92.609 110.685 91.5502C110.685 91.1796 110.623 90.8593 110.498 90.5892C110.244 90.0651 109.721 89.803 108.931 89.803Z" fill="#2285C2"/>
<path d="M83.0503 98.6103V100H79.0212V98.6103L79.866 98.4911L83.627 88.4371H86.0558L89.7925 98.4911L90.6373 98.6103V100H86.6082V98.6103L87.4286 98.4673L86.9088 96.879H82.7497L82.2299 98.4673L83.0503 98.6103ZM84.8049 90.8593L84.683 91.2326L83.3102 95.1716H86.3483L84.9673 91.2087L84.8536 90.8593H84.8049Z" fill="#2285C2"/>
<path d="M67.1211 91.4469V94.9174H58.2263V93.5276L59.4854 93.2894V84.9905L58.2263 84.7522V83.3545H63.287V84.7522L61.8573 84.9905V93.1385H65.1959L65.3097 91.4469H67.1211Z" fill="#2285C2"/>
<path d="M141.065 29.9238L142.568 33.3228L143.576 33.5531V34.9428H140.7L138.88 30.3764H136.72V33.3148L137.987 33.5531V34.9428H133.089V33.5531L134.348 33.3148V25.0159L133.089 24.7777V23.3799H138.694C139.609 23.3799 140.389 23.5176 141.033 23.7929C141.683 24.0682 142.181 24.4626 142.528 24.9762C142.88 25.4897 143.056 26.1065 143.056 26.8266C143.056 27.5095 142.882 28.1158 142.536 28.6452C142.189 29.1852 141.699 29.6114 141.065 29.9238ZM136.72 25.1668V28.5896H138.653C140.012 28.5896 140.692 28.0363 140.692 26.9298C140.692 26.3951 140.524 25.9689 140.188 25.6512C139.852 25.3283 139.354 25.1668 138.694 25.1668H136.72Z" fill="#2285C2"/>
<path d="M122.691 18.5674V21.7281H113.333V20.3383L114.592 20.1001V11.8012L113.333 11.5629V10.1652H122.512V13.2863H120.693L120.587 11.9521H116.964V14.8587H120.969V16.6455H116.964V19.9492H120.782L120.888 18.5674H122.691Z" fill="#2285C2"/>
<path d="M97.761 11.5629H92.5378V10.1731L93.8132 9.91105V1.66773L92.5378 1.39771V0H97.7285C98.7899 0 99.7214 0.240894 100.523 0.722681C101.33 1.20447 101.958 1.87421 102.407 2.73189C102.862 3.58958 103.09 4.57169 103.09 5.67821V5.89263C103.09 6.99386 102.868 7.96802 102.424 8.81512C101.98 9.67281 101.354 10.3452 100.547 10.8323C99.7457 11.3194 98.817 11.5629 97.761 11.5629ZM97.6391 1.77891H96.1851V9.79193H97.6391C98.2998 9.79193 98.8549 9.62251 99.3044 9.28367C99.7593 8.95013 100.106 8.48952 100.344 7.90184C100.588 7.31417 100.71 6.64443 100.71 5.89263V5.67027C100.71 4.91317 100.591 4.23814 100.352 3.64517C100.109 3.06279 99.7593 2.60748 99.3044 2.27922C98.8495 1.94568 98.2944 1.77891 97.6391 1.77891Z" fill="#2285C2"/>
<path d="M73.522 10.1731V11.5629H68.6238V10.1731L69.8829 9.93488V1.63596L68.6238 1.39771V0H72.2873L77.4373 8.02097L77.4861 8.01302V1.63596L75.9752 1.39771V0H80.8734V1.39771L79.6062 1.63596V11.5629H77.3155L72.0517 3.62135L72.003 3.62929V9.93488L73.522 10.1731Z" fill="#2285C2"/>
<path d="M53.1736 22.0617C52.3775 22.0617 51.6519 21.9161 50.9966 21.6249C50.3414 21.3337 49.7782 20.9234 49.307 20.3939C48.8305 19.8698 48.4649 19.253 48.2104 18.5436C47.9559 17.8288 47.8286 17.0479 47.8286 16.2008V16.0261C47.8286 15.1843 47.9559 14.4087 48.2104 13.6992C48.4649 12.9845 48.8278 12.3624 49.2989 11.8329C49.77 11.3035 50.3332 10.8932 50.9885 10.602C51.6438 10.3108 52.3694 10.1652 53.1655 10.1652C53.967 10.1652 54.698 10.3108 55.3587 10.602C56.0194 10.8932 56.588 11.3035 57.0646 11.8329C57.5411 12.3624 57.9067 12.9845 58.1612 13.6992C58.4211 14.4087 58.5511 15.1843 58.5511 16.0261V16.2008C58.5511 17.0479 58.4211 17.8288 58.1612 18.5436C57.9067 19.253 57.5411 19.8698 57.0646 20.3939C56.588 20.9234 56.0194 21.3337 55.3587 21.6249C54.7035 21.9161 53.9751 22.0617 53.1736 22.0617ZM53.1736 20.2589C53.8451 20.2589 54.4029 20.0895 54.847 19.7507C55.291 19.4118 55.6241 18.938 55.8461 18.3291C56.0735 17.7203 56.1873 17.0108 56.1873 16.2008V16.0102C56.1873 15.2108 56.0735 14.5066 55.8461 13.8978C55.6187 13.2942 55.2802 12.823 54.8307 12.4842C54.3867 12.1453 53.8316 11.9759 53.1655 11.9759C52.5048 11.9759 51.9551 12.1427 51.5165 12.4762C51.0778 12.8151 50.7475 13.2863 50.5255 13.8898C50.3089 14.4934 50.2006 15.2002 50.2006 16.0102V16.2008C50.2006 17.0003 50.3116 17.7097 50.5336 18.3291C50.7556 18.938 51.086 19.4118 51.5246 19.7507C51.9633 20.0895 52.5129 20.2589 53.1736 20.2589Z" fill="#2285C2"/>
<path d="M29.1779 28.2163L26.9116 34.9428H24.7509L22.0053 24.8968L20.7949 24.7777V23.3799H25.5551V24.7777L24.2797 24.9603L25.6688 30.5829L25.9206 31.6153H25.9693L26.2699 30.5829L28.6093 23.3799H30.3558L32.7846 30.7815L33.0689 31.6947H33.1176L33.3613 30.7815L34.7991 24.9603L33.4507 24.7777V23.3799H38.1215V24.7777L36.9924 24.8968L34.2143 34.9428H32.0698L29.8278 28.1846L29.5435 27.2316H29.4947L29.1779 28.2163Z" fill="#2285C2"/>
</svg>
